<svg xmlns="http://www.w3.org/2000/svg" width="13.229" height="11.189" viewBox="0 0 13.229 11.189">
  <path id="Details_options" d="M313.026,63.052v1.234l-.039.093-.056.095-.075.093-.073.075-.095.056-.112.019h-12.33l-.114-.019-.093-.056-.095-.075-.056-.093-.056-.095-.037-.093V62.938l.037-.112.056-.075.056-.093.095-.075.093-.056.114-.037h12.33l.112.037.095.056.073.075.075.093.056.075.039.112Zm0-4.473V59.8l-.039.093-.056.095-.075.093-.073.075-.095.056-.112.019-.112.017H300.339l-.093-.017-.114-.019-.093-.056-.095-.075-.056-.093-.056-.095L299.8,59.8V58.467l.037-.112.056-.075.056-.095.095-.075.093-.056.114-.037.093-.019h12.126l.112.019.112.037.095.056.073.075.075.095.056.075.039.112Zm0-4.49v1.234l-.039.093-.056.095-.075.093-.073.075-.095.056-.112.019h-12.33l-.114-.019-.093-.056-.095-.075-.056-.093-.056-.095-.037-.093V53.975l.037-.112.056-.075.056-.093.095-.075.093-.056.114-.037h12.33l.112.037.095.056.073.075.075.093.056.075.039.112Z" transform="translate(-299.797 -53.527)" fill="#8b8b8b" fill-rule="evenodd"/>
</svg>
