<svg xmlns="http://www.w3.org/2000/svg" width="10.092" height="11.089" viewBox="0 0 10.092 11.089">
  <path id="Path_98" data-name="Path 98" d="M131.854,120.927l-.013.256-.015.257-.029.256-.043.242-.071.257-.057.242-.085.242-.1.228-.1.242-.115.213-.113.215-.143.215-.129.2-.156.2-.157.185-.157.172-.185.17-.17.157-.185.143-.2.157-.2.113-.228.128-.215.115-.228.115-.242.085-.228.085-.242.072-.242.071-.242.029-.257.028-.241.028h-.514l-.256-.028-.257-.028-.242-.029-.242-.071-.242-.072-.228-.085-.242-.085-.228-.115-.215-.115-.213-.128-.2-.113-.2-.157-.2-.143-.17-.157-.17-.17-.172-.172-.157-.185-.143-.2-.143-.2-.128-.215-.128-.215-.1-.213-.115-.242-.085-.228-.085-.242-.072-.242-.056-.257-.044-.242-.028-.256-.015-.257-.013-.256.013-.314.029-.285.043-.285.043-.3.071-.285.1-.27.1-.285.129-.27.143-.257.156-.242.157-.242.185-.242.185-.213.2-.215.228-.185.242-.185.143-.1.143-.071.172-.015h.156l.172.043.157.071.113.1.115.129.085.143.057.156.028.157-.015.185-.043.157-.056.143-.1.143-.129.115-.156.128-.143.128-.143.143-.115.143-.128.157-.1.17-.115.157-.085.172-.085.2-.072.172-.071.185-.029.185-.043.185-.028.2-.015.2-.015.2.015.341.057.329.071.341.129.314.128.3.185.285.185.256.215.242.242.215.256.2.285.172.3.143.3.128.328.072.342.056.328.015.342-.015.328-.056.313-.072.314-.128.313-.143.272-.172.256-.2.242-.215.215-.242.185-.256.17-.285.143-.3.115-.314.085-.341.057-.329v-.741l-.029-.2-.043-.185-.057-.185-.071-.185-.057-.172-.085-.2-.1-.172-.085-.157-.115-.17-.113-.157-.143-.143-.129-.143-.156-.128-.157-.128-.128-.115-.087-.143-.071-.143-.043-.157v-.185l.013-.157.072-.156.085-.143.1-.129.143-.1.143-.071.157-.043h.185l.157.015.143.071.143.1.242.185.213.185.2.215.2.213.185.242.157.242.143.242.156.257.115.27.115.285.085.27.071.285.057.3.043.285.029.285Zm-4.205-5.118v4.276l-.013.157-.057.157-.085.143-.1.128-.129.115-.143.071-.143.057-.17.015-.17-.015-.143-.057-.144-.071-.128-.115-.113-.128-.087-.143-.043-.157-.013-.157v-4.276l.013-.172.043-.156.087-.143.113-.143.128-.1.144-.087.143-.056h.341l.143.056.143.087.129.1.1.143.085.143.057.156Z" transform="translate(-121.762 -114.954)" fill="#00abed" fill-rule="evenodd"/>
</svg>
