<svg id="Pin" xmlns="http://www.w3.org/2000/svg" width="13.471" height="13.426" viewBox="0 0 13.471 13.426">
  <path id="Path_5008" data-name="Path 5008" d="M13.471,3.093l-.064.214-.115.214-.132.214-.132.181-.608-.247L9.866,6.236,11.085,7.47l.049.032v.049l.017.1-.017.081v.049l-.049.034-1.6,1.611-.066.066-.1.017-.1-.017-.049-.015L9.16,9.427,7.052,7.335.233,13.426,0,13.193,6.234,6.469,4.16,4.377,4.094,4.3V4.1l.066-.066L5.755,2.4l.081-.049.049-.017h.051l.081.017L6.1,2.4,7.318,3.622,9.87,1.054,9.622.444,9.8.3l.214-.132.2-.081L10.429,0Z" transform="translate(0)" fill="#00abed" fill-rule="evenodd"/>
</svg>
